<?xml version="1.0" encoding="UTF-8" standalone="no"?>
<!DOCTYPE svg PUBLIC "-//W3C//DTD SVG 1.1//EN"
 "http://www.w3.org/Graphics/SVG/1.1/DTD/svg11.dtd">
<!-- Generated by graphviz version 2.44.0 (20200518.1210)
 -->
<!-- Title: sasjsdoc Pages: 1 -->
<svg width="962pt" height="203pt"
 viewBox="0.00 0.00 962.44 202.60" xmlns="http://www.w3.org/2000/svg" xmlns:xlink="http://www.w3.org/1999/xlink">
<g id="graph0" class="graph" transform="scale(1 1) rotate(0) translate(4 198.6)">
<title>sasjsdoc</title>
<polygon fill="white" stroke="transparent" points="-4,4 -4,-198.6 958.44,-198.6 958.44,4 -4,4"/>
<!-- n0 -->
<g id="node1" class="node">
<title>n0</title>
<path fill="#a3d0d4" stroke="#a3d0d4" d="M556.45,-191.33C556.45,-193.13 517.35,-194.6 469.22,-194.6 421.09,-194.6 381.99,-193.13 381.99,-191.33 381.99,-191.33 381.99,-161.87 381.99,-161.87 381.99,-160.07 421.09,-158.6 469.22,-158.6 517.35,-158.6 556.45,-160.07 556.45,-161.87 556.45,-161.87 556.45,-191.33 556.45,-191.33"/>
<path fill="none" stroke="#a3d0d4" d="M556.45,-191.33C556.45,-189.52 517.35,-188.05 469.22,-188.05 421.09,-188.05 381.99,-189.52 381.99,-191.33"/>
<text text-anchor="middle" x="469.22" y="-172.4" font-family="Times,serif" font-size="14.00">APILIB._API_ALL_DATA</text>
</g>
<!-- n5 -->
<g id="node6" class="node">
<title>n5</title>
<g id="a_node6"><a xlink:href="censusapi__getdsfullinfo_8sas_source.html" xlink:title="{CENSUSAPI_GETDSFULLINFO.SAS | Extracts required JSON &amp; HTML URLs associated with the specified Data set RowID}">
<polygon fill="none" stroke="black" points="218.63,-72.5 218.63,-122.1 719.81,-122.1 719.81,-72.5 218.63,-72.5"/>
<text text-anchor="middle" x="469.22" y="-105.5" font-family="Times,serif" font-size="14.00">CENSUSAPI_GETDSFULLINFO.SAS</text>
<polyline fill="none" stroke="black" points="218.63,-97.3 719.81,-97.3 "/>
<text text-anchor="middle" x="469.22" y="-80.7" font-family="Times,serif" font-size="14.00">Extracts required JSON &amp; HTML URLs associated with the specified Data set RowID</text>
</a>
</g>
</g>
<!-- n0&#45;&gt;n5 -->
<g id="edge1" class="edge">
<title>n0&#45;&gt;n5</title>
<path fill="none" stroke="black" d="M469.22,-158.44C469.22,-150.69 469.22,-141.24 469.22,-132.15"/>
<polygon fill="black" stroke="black" points="472.72,-132.15 469.22,-122.15 465.72,-132.15 472.72,-132.15"/>
</g>
<!-- n1 -->
<g id="node2" class="node">
<title>n1</title>
<path fill="#a3d0d4" stroke="#a3d0d4" d="M222.66,-32.73C222.66,-34.53 172.71,-36 111.22,-36 49.73,-36 -0.22,-34.53 -0.22,-32.73 -0.22,-32.73 -0.22,-3.27 -0.22,-3.27 -0.22,-1.47 49.73,0 111.22,0 172.71,0 222.66,-1.47 222.66,-3.27 222.66,-3.27 222.66,-32.73 222.66,-32.73"/>
<path fill="none" stroke="#a3d0d4" d="M222.66,-32.73C222.66,-30.92 172.71,-29.45 111.22,-29.45 49.73,-29.45 -0.22,-30.92 -0.22,-32.73"/>
<text text-anchor="middle" x="111.22" y="-13.8" font-family="Times,serif" font-size="14.00">APILIB.[DS_UNIQUE_ID]_VARS;</text>
</g>
<!-- n2 -->
<g id="node3" class="node">
<title>n2</title>
<path fill="#a3d0d4" stroke="#a3d0d4" d="M460.34,-32.73C460.34,-34.53 410.98,-36 350.22,-36 289.46,-36 240.1,-34.53 240.1,-32.73 240.1,-32.73 240.1,-3.27 240.1,-3.27 240.1,-1.47 289.46,0 350.22,0 410.98,0 460.34,-1.47 460.34,-3.27 460.34,-3.27 460.34,-32.73 460.34,-32.73"/>
<path fill="none" stroke="#a3d0d4" d="M460.34,-32.73C460.34,-30.92 410.98,-29.45 350.22,-29.45 289.46,-29.45 240.1,-30.92 240.1,-32.73"/>
<text text-anchor="middle" x="350.22" y="-13.8" font-family="Times,serif" font-size="14.00">APILIB.[DS_UNIQUE_ID]_GRPS;</text>
</g>
<!-- n3 -->
<g id="node4" class="node">
<title>n3</title>
<path fill="#a3d0d4" stroke="#a3d0d4" d="M699.88,-32.73C699.88,-34.53 650.28,-36 589.22,-36 528.16,-36 478.56,-34.53 478.56,-32.73 478.56,-32.73 478.56,-3.27 478.56,-3.27 478.56,-1.47 528.16,0 589.22,0 650.28,0 699.88,-1.47 699.88,-3.27 699.88,-3.27 699.88,-32.73 699.88,-32.73"/>
<path fill="none" stroke="#a3d0d4" d="M699.88,-32.73C699.88,-30.92 650.28,-29.45 589.22,-29.45 528.16,-29.45 478.56,-30.92 478.56,-32.73"/>
<text text-anchor="middle" x="589.22" y="-13.8" font-family="Times,serif" font-size="14.00">APILIB.[DS_UNIQUE_ID]_GEOS;</text>
</g>
<!-- n4 -->
<g id="node5" class="node">
<title>n4</title>
<path fill="#a3d0d4" stroke="#a3d0d4" d="M954.66,-32.73C954.66,-34.53 901.57,-36 836.22,-36 770.87,-36 717.78,-34.53 717.78,-32.73 717.78,-32.73 717.78,-3.27 717.78,-3.27 717.78,-1.47 770.87,0 836.22,0 901.57,0 954.66,-1.47 954.66,-3.27 954.66,-3.27 954.66,-32.73 954.66,-32.73"/>
<path fill="none" stroke="#a3d0d4" d="M954.66,-32.73C954.66,-30.92 901.57,-29.45 836.22,-29.45 770.87,-29.45 717.78,-30.92 717.78,-32.73"/>
<text text-anchor="middle" x="836.22" y="-13.8" font-family="Times,serif" font-size="14.00">APILIB.[DS_UNIQUE_ID]_EXMPLS</text>
</g>
<!-- n5&#45;&gt;n1 -->
<g id="edge2" class="edge">
<title>n5&#45;&gt;n1</title>
<path fill="none" stroke="black" d="M358.89,-72.48C307.09,-61.29 246.25,-48.16 197.83,-37.7"/>
<polygon fill="black" stroke="black" points="198.52,-34.27 188.01,-35.58 197.04,-41.11 198.52,-34.27"/>
</g>
<!-- n5&#45;&gt;n2 -->
<g id="edge3" class="edge">
<title>n5&#45;&gt;n2</title>
<path fill="none" stroke="black" d="M432.54,-72.48C417.36,-62.61 399.84,-51.23 384.87,-41.51"/>
<polygon fill="black" stroke="black" points="386.68,-38.51 376.39,-36 382.87,-44.38 386.68,-38.51"/>
</g>
<!-- n5&#45;&gt;n3 -->
<g id="edge4" class="edge">
<title>n5&#45;&gt;n3</title>
<path fill="none" stroke="black" d="M506.2,-72.48C521.52,-62.61 539.19,-51.23 554.28,-41.51"/>
<polygon fill="black" stroke="black" points="556.32,-44.36 562.83,-36 552.53,-38.47 556.32,-44.36"/>
</g>
<!-- n5&#45;&gt;n4 -->
<g id="edge5" class="edge">
<title>n5&#45;&gt;n4</title>
<path fill="none" stroke="black" d="M582.33,-72.48C635.33,-61.31 697.57,-48.2 747.16,-37.76"/>
<polygon fill="black" stroke="black" points="748.16,-41.13 757.22,-35.64 746.71,-34.28 748.16,-41.13"/>
</g>
</g>
</svg>
